# xmcd
#
# Track frame offsets: 
#        150
#        12103
#        21863
#        36785
#        65240
#        76978
#        96545
#        108730
#        118483
#        131570
#        149558
#        169513
#        182080
#        192513
#        222065
#        239390
#        265050
#
# Disc length: 3690 seconds
#
# Revision: 0
# Processed by: cddbd v1.5.1PL2 Copyright (c) Steve Scherf et al.
# Submitted via: ExactAudioCopy v0.95a5
#
DISCID=000e6811
DTITLE=Richard Ray Farell - Live im Schützenhaus
DYEAR=1993
DGENRE=Blues
TTITLE0=Just keep lovin' her
TTITLE1=Gypsy caravan
TTITLE2=Supermarket
TTITLE3=Love her with a feelin'
TTITLE4=Stir crazy
TTITLE5=Walkin' on thin ice
TTITLE6=Leavin' you down in the dirt
TTITLE7=My hideaway
TTITLE8=Crossroads
TTITLE9=Can't get over losin' you
TTITLE10=Crosstown
TTITLE11=Spring fever
TTITLE12=Knife with a jagged edge
TTITLE13=Johnnie's joint
TTITLE14=Let's go ridin' tonight
TTITLE15=Who's been talkin'
TTITLE16=Tell me
EXTD=
EXTT0=
EXTT1=
EXTT2=
EXTT3=
EXTT4=
EXTT5=
EXTT6=
EXTT7=
EXTT8=
EXTT9=
EXTT10=
EXTT11=
EXTT12=
EXTT13=
EXTT14=
EXTT15=
EXTT16=
PLAYORDER=
